<svg width="97" height="20" viewBox="0 0 97 20" fill="none" xmlns="http://www.w3.org/2000/svg">
<path d="M7.5 17.5C7.5 18.8807 8.61929 20 10 20C11.3807 20 12.5 18.8807 12.5 17.5C12.5 16.1193 11.3807 15 10 15C8.61929 15 7.5 16.1193 7.5 17.5Z" fill="#1F2129"/>
<path d="M15 10C15 11.3807 16.1193 12.5 17.5 12.5C18.8807 12.5 20 11.3807 20 10C20 8.61929 18.8807 7.5 17.5 7.5C16.1193 7.5 15 8.61929 15 10Z" fill="#1F2129"/>
<path d="M7.5 10C7.5 11.3807 8.61929 12.5 10 12.5C11.3807 12.5 12.5 11.3807 12.5 10C12.5 8.61929 11.3807 7.5 10 7.5C8.61929 7.5 7.5 8.61929 7.5 10Z" fill="#1F2129"/>
<path d="M0 10C0 11.3807 1.11929 12.5 2.5 12.5C3.88071 12.5 5 11.3807 5 10C5 8.61929 3.88071 7.5 2.5 7.5C1.11929 7.5 0 8.61929 0 10Z" fill="#1F2129"/>
<path d="M7.5 2.5C7.5 3.88071 8.61929 5 10 5C11.3807 5 12.5 3.88071 12.5 2.5C12.5 1.11929 11.3807 0 10 0C8.61929 0 7.5 1.11929 7.5 2.5Z" fill="#2C9C74"/>
<path fill-rule="evenodd" clip-rule="evenodd" d="M41.7708 13.6459C41.7708 16.5105 39.6875 18.3334 36.3021 18.3334H26.6667V1.66675H35.6272C38.9062 1.66675 40.9896 3.22701 40.9896 5.83341C40.9896 7.39591 40.2083 8.698 38.7716 9.43815C40.7292 10.0001 41.7708 11.5626 41.7708 13.6459ZM35.5208 3.75008H29.2708V8.698H35.7812C37.4018 8.698 38.3854 7.65633 38.3854 6.09383C38.3854 4.53133 37.6042 3.75008 35.5208 3.75008ZM36.3021 10.7813H29.2708V16.2501H35.7812C37.9823 16.2501 39.1667 15.4688 39.1667 13.6459C39.1667 11.823 38.125 10.7813 36.3021 10.7813ZM94.1427 8.95841C93.3333 7.39591 91.5104 6.35425 89.1667 6.35425C85.2604 6.35425 82.1354 8.698 82.1354 12.6042C82.1354 16.2501 85.2604 18.5938 89.1979 18.5938C91.25 18.5938 93.0729 17.8126 94.1146 16.2501V18.3334H96.4583V1.66675H94.1146L94.1427 8.95841ZM89.4271 16.7709C86.8229 16.7709 84.7396 15.1973 84.7396 12.6042C84.7396 10.0112 86.5625 8.17716 89.4271 8.17716C92.2917 8.17716 94.1146 9.98715 94.1146 12.6042C94.1146 15.2694 92.0312 16.7709 89.4271 16.7709ZM79.813 6.61467C78.2505 6.61467 76.4276 7.39611 75.6463 8.95861L75.6515 6.87508H73.2812V18.3354H75.6463L75.6515 12.344C75.6515 9.73986 77.4692 8.698 79.5526 8.698C80.8547 8.698 81.3755 9.21883 81.3755 9.21883L82.6776 7.13569C82.6776 7.13569 81.6359 6.61467 79.813 6.61467ZM58.9583 8.43758C60.7812 7.1355 62.6042 6.61466 64.9479 6.61466C68.8542 6.61466 70.9375 7.91675 70.9375 11.4003V18.3334H68.5937V16.2501C67.5521 18.073 65.7292 18.5938 63.6458 18.5938C60.5208 18.5938 58.4375 17.2677 58.4375 14.948C58.4375 12.5804 60.4105 11.3022 63.3854 11.3022H68.5937V11.0417C68.5937 9.21883 67.8125 8.43758 64.9479 8.43758C63.3854 8.43758 61.5625 8.95841 60.2604 10.2605L58.9583 8.43758ZM60.7812 14.948C60.7812 16.2501 62.0833 16.7709 63.9062 16.7709C66.7708 16.7709 68.5937 15.4688 68.5937 13.1251H63.9062C62.0833 13.1251 60.7812 13.6459 60.7812 14.948ZM50.1042 18.5938C54.2708 18.5938 57.1354 16.2501 57.1354 12.6042C57.1354 8.95841 54.2884 6.61466 50.1042 6.61466C45.9441 6.61466 43.0729 8.95841 43.0729 12.6042C43.0729 16.2501 45.9375 18.5938 50.1042 18.5938ZM50.1042 16.7709C47.2396 16.7709 45.6771 15.1631 45.6771 12.6042C45.6771 10.0454 47.3227 8.43758 50.1042 8.43758C52.8856 8.43758 54.5312 10.0001 54.5312 12.6042C54.5312 15.2084 52.9687 16.7709 50.1042 16.7709Z" fill="#1F2129"/>
</svg>
